<svg xmlns="http://www.w3.org/2000/svg" version="1.1" xmlns:xlink="http://www.w3.org/1999/xlink" viewBox="0 0 200 200"><rect width="200" height="200" fill="url('#gradient')"></rect><defs><linearGradient id="gradient" gradientTransform="rotate(142 0.5 0.5)"><stop offset="0%" stop-color="#f2f6f3"></stop><stop offset="100%" stop-color="#aeb8d1"></stop></linearGradient></defs><g><g fill="#000000" transform="matrix(2.488456865127582,0,0,2.488456865127582,9.485309843340609,118.42924925130887)" stroke="#f2f6f3" stroke-width="0"><path d="M10.11-14.22L12.09-5.30L13.72-14.22L17.12-14.22L14.10 0L10.55 0L8.64-8.11L6.78 0L3.23 0L0.21-14.22L3.61-14.22L5.24-5.30L7.20-14.22L10.11-14.22ZM23.12 0.20L23.12 0.20Q20.68 0.20 19.18-1.25Q17.68-2.71 17.68-5.03L17.68-5.03L17.68-5.30Q17.68-6.92 18.28-8.16Q18.88-9.40 20.03-10.08Q21.18-10.76 22.76-10.76L22.76-10.76Q24.99-10.76 26.28-9.38Q27.57-8.00 27.57-5.53L27.57-5.53L27.57-4.25L21.03-4.25Q21.20-3.36 21.80-2.85Q22.39-2.34 23.34-2.34L23.34-2.34Q24.90-2.34 25.78-3.44L25.78-3.44L27.29-1.66Q26.67-0.81 25.54-0.31Q24.41 0.20 23.12 0.20ZM22.74-8.22L22.74-8.22Q21.30-8.22 21.03-6.31L21.03-6.31L24.35-6.31L24.35-6.56Q24.37-7.35 23.95-7.79Q23.53-8.22 22.74-8.22ZM36.36-10.57L38.02-4.34L39.08-10.57L42.24-10.57L39.75 0L36.96 0L35.21-6.27L33.46 0L30.67 0L28.18-10.57L31.34-10.57L32.38-4.19L34.06-10.57L36.36-10.57ZM43.01-4.82L43.00-5.38Q43.00-6.96 43.61-8.20Q44.23-9.43 45.38-10.10Q46.53-10.76 48.09-10.76L48.09-10.76Q50.46-10.76 51.83-9.29Q53.19-7.82 53.19-5.29L53.19-5.29L53.19-5.18Q53.19-2.71 51.82-1.25Q50.45 0.20 48.11 0.20L48.11 0.20Q45.85 0.20 44.48-1.16Q43.12-2.51 43.01-4.82L43.01-4.82ZM46.30-5.77L46.29-5.18Q46.29-3.71 46.75-3.03Q47.21-2.34 48.11-2.34L48.11-2.34Q49.86-2.34 49.90-5.05L49.90-5.05L49.90-5.38Q49.90-8.22 48.09-8.22L48.09-8.22Q46.44-8.22 46.30-5.77L46.30-5.77ZM61.09-10.64L61.04-7.59L59.95-7.67Q58.40-7.67 57.96-6.69L57.96-6.69L57.96 0L54.67 0L54.67-10.57L57.75-10.57L57.86-9.21Q58.69-10.76 60.18-10.76L60.18-10.76Q60.70-10.76 61.09-10.64L61.09-10.64ZM68.77 0L66.46-3.94L65.54-3.01L65.54 0L62.25 0L62.25-15.01L65.54-15.01L65.54-7.04L65.87-7.48L68.35-10.57L72.29-10.57L68.59-6.22L72.54 0L68.77 0Z"></path></g></g></svg>